<svg xmlns="http://www.w3.org/2000/svg" viewBox="0 0 2396.474229 247.212392" fill="currentColor" role="img" aria-label="NAVER LABS"><g transform="translate(-12.000000,258.139292) scale(0.100000,-0.100000)"><path d="M120 1345 l0 -1235 400 0 400 0 2 657 3 658 456 -655 456 -655 381
-3 382 -2 0 1235 0 1235 -400 0 -400 0 -2 -654 -3 -654 -455 654 -455 654
-382 0 -383 0 0 -1235z"/>
<path d="M3827 2573 c-5 -8 -893 -2270 -943 -2401 l-24 -62 413 0 412 0 27 78
c14 42 41 116 58 165 l32 87 463 0 463 0 58 -165 59 -165 412 0 412 0 -22 57
c-12 32 -229 587 -483 1233 l-461 1175 -436 3 c-239 1 -438 -1 -440 -5z m577
-1159 c68 -192 127 -357 131 -366 7 -17 -10 -18 -270 -18 -218 0 -276 3 -272
13 2 6 61 170 130 362 155 434 138 390 148 373 4 -8 64 -172 133 -364z"/>
<path d="M5254 2563 c4 -10 222 -566 484 -1235 l477 -1218 436 0 437 0 27 67
c15 38 232 590 482 1228 250 638 457 1163 460 1167 2 5 -182 8 -410 8 l-414 0
-289 -809 c-159 -445 -291 -807 -293 -805 -2 1 -133 364 -291 806 l-287 803
-413 3 c-390 2 -412 1 -406 -15z"/>
<path d="M8310 1345 l0 -1235 975 0 975 0 0 300 0 300 -577 2 -578 3 -3 168
-2 167 565 0 565 0 0 295 0 295 -565 0 -565 0 2 168 3 167 568 3 567 2 0 300
0 300 -965 0 -965 0 0 -1235z"/>
<path d="M10650 1346 l0 -1236 390 0 390 0 0 345 0 345 138 0 138 0 234 -345
235 -344 413 -1 413 0 -19 28 c-11 15 -151 205 -311 422 l-291 394 97 48 c150
72 246 162 317 298 125 240 120 600 -12 840 -43 78 -173 211 -254 258 -81 48
-201 98 -293 122 -194 51 -219 52 -922 57 l-663 4 0 -1235z m1300 580 c49 -26
98 -74 123 -121 29 -53 30 -173 3 -225 -25 -49 -74 -98 -121 -123 -37 -21 -56
-22 -287 -25 l-248 -3 0 261 0 261 248 -3 c218 -3 251 -5 282 -22z"/>
<path d="M14160 1345 l0 -1235 961 2 961 3 133 338 132 337 -688 0 -689 0 0
895 0 895 -405 0 -405 0 0 -1235z"/>
<path d="M17385 2538 c-9 -24 -222 -565 -472 -1203 -250 -638 -461 -1175 -468
-1192 l-14 -33 413 0 414 0 43 123 c23 67 51 141 60 165 l18 42 462 -2 462 -3
57 -160 58 -160 412 -3 c390 -2 412 -1 406 15 -4 10 -221 566 -484 1235 l-477
1218 -436 0 -437 0 -17 -42z m595 -1131 c72 -203 130 -371 127 -373 -2 -2
-125 -3 -274 -2 l-269 3 135 378 c74 208 138 374 142 370 4 -5 66 -174 139
-376z"/>
<path d="M19470 1345 l0 -1236 868 3 c856 3 868 4 944 25 116 33 181 69 246
137 71 74 102 126 138 231 24 69 28 100 32 230 9 321 -64 459 -309 585 l-102
52 77 40 c135 71 210 166 252 318 26 94 26 332 1 415 -51 165 -152 288 -290
354 -165 79 -113 75 -1034 79 l-823 3 0 -1236z m1305 635 c58 -28 88 -83 88
-165 0 -82 -17 -127 -58 -164 -45 -39 -75 -43 -345 -39 l-225 3 -3 193 -2 192
252 0 c231 0 255 -2 293 -20z m58 -884 c83 -35 119 -150 86 -271 -14 -51 -73
-110 -124 -124 -25 -7 -142 -11 -302 -11 l-263 0 0 210 0 210 285 0 c220 0
293 -3 318 -14z"/>
<path d="M22406 2564 c-157 -38 -310 -161 -379 -304 -54 -111 -70 -185 -70
-325 0 -143 19 -229 70 -333 44 -89 147 -203 235 -260 40 -26 242 -113 548
-237 267 -108 493 -204 503 -212 25 -23 22 -75 -6 -101 l-23 -22 -645 -2 -644
-3 -3 -327 -2 -328 763 0 c863 0 839 -2 995 80 148 77 263 210 313 361 21 65
24 92 24 224 0 116 -5 164 -19 209 -51 170 -152 294 -316 389 -25 14 -267 116
-539 227 -272 110 -503 208 -513 217 -23 21 -23 65 0 86 17 15 71 17 568 17
l549 0 122 313 c67 171 125 320 129 330 6 16 -36 17 -797 16 -660 -1 -815 -3
-863 -15z"/></g></svg>